<svg t="1728929003509" class="icon" viewBox="0 0 1024 1024" version="1.1" xmlns="http://www.w3.org/2000/svg" p-id="7221" width="200" height="200"><path d="M521.92 943.68A441.6 441.6 0 0 1 384 82.24a41.6 41.6 0 0 1 52.48 52.48 358.08 358.08 0 0 0 341.44 469.76 360.32 360.32 0 0 0 111.36-17.92A41.6 41.6 0 0 1 941.76 640a440.32 440.32 0 0 1-419.84 303.68z m-182.4-750.08A358.4 358.4 0 1 0 832 684.48a408.96 408.96 0 0 1-52.48 3.2 441.92 441.92 0 0 1-441.6-441.6 408.96 408.96 0 0 1 1.6-52.48z" p-id="7222" fill="#0ea5e9"></path></svg>